# xmcd
#
# Track frame offsets:
#	150
#	39123
#	72717
#	78891
#	112067
#	115050
#	126795
#	146336
#	152910
#	183857
#	199772
#	224481
#	255630
#	296020
#	321905
#
# Disc length: 4628 seconds
#
# Revision: 0
# Processed by: cddbd v1.5.2PL0 Copyright (c) Steve Scherf et al.
# Submitted via: EasyCDDAExtractor 11.5.3.1
#
DISCID=df12120f
DTITLE=Eric Dozier and the One Human Family Gospel Choir - The Pilgrimage Proj
DTITLE=ect
DYEAR=1900
DGENRE=Gospel
TTITLE0=Rejoice
TTITLE1=Blessed is the Spot
TTITLE2=The Root of the Spiritual
TTITLE3=Soon I Will be Done
TTITLE4=Spiritual Steel
TTITLE5=Metaphor of Moses
TTITLE6=Keep Your Eyes on the Prize
TTITLE7=Growing up in Bakewell
TTITLE8=Hold on
TTITLE9=In that Great Gettin' up Mornin'
TTITLE10=Spirituals Medley
TTITLE11=Noble
TTITLE12=Tell the Rich
TTITLE13=Trouble in My Way
TTITLE14=Great Day
EXTD=
EXTT0=
EXTT1=
EXTT2=
EXTT3=
EXTT4=
EXTT5=
EXTT6=
EXTT7=
EXTT8=
EXTT9=
EXTT10=
EXTT11=
EXTT12=
EXTT13=
EXTT14=
PLAYORDER=
